<svg width="18" height="18" viewBox="0 0 18 18" fill="none" xmlns="http://www.w3.org/2000/svg">
<path d="M1.53711 1.5376H3.03711L5.03211 10.8526C5.10529 11.1937 5.29511 11.4987 5.56889 11.715C5.84267 11.9313 6.18329 12.0454 6.53211 12.0376H13.8671C14.2085 12.037 14.5395 11.9201 14.8054 11.706C15.0713 11.4919 15.2562 11.1935 15.3296 10.8601L16.5671 5.2876H3.83961M6.74976 15.7501C6.74976 16.1643 6.41397 16.5001 5.99976 16.5001C5.58554 16.5001 5.24976 16.1643 5.24976 15.7501C5.24976 15.3358 5.58554 15.0001 5.99976 15.0001C6.41397 15.0001 6.74976 15.3358 6.74976 15.7501ZM14.9998 15.7501C14.9998 16.1643 14.664 16.5001 14.2498 16.5001C13.8355 16.5001 13.4998 16.1643 13.4998 15.7501C13.4998 15.3358 13.8355 15.0001 14.2498 15.0001C14.664 15.0001 14.9998 15.3358 14.9998 15.7501Z" stroke="#6C7071" stroke-linecap="round" stroke-linejoin="round"/>
</svg>
